<?xml version="1.0" standalone="no"?>
<!DOCTYPE svg PUBLIC "-//W3C//DTD SVG 20010904//EN"
 "http://www.w3.org/TR/2001/REC-SVG-20010904/DTD/svg10.dtd">
<svg version="1.0" xmlns="http://www.w3.org/2000/svg"
 width="276.000000pt" height="50.000000pt" viewBox="0 0 276.000000 50.000000"
 preserveAspectRatio="xMidYMid meet">
<metadata>
Created by potrace 1.10, written by Peter Selinger 2001-2011
</metadata>
<g transform="translate(0.000000,50.000000) scale(0.100000,-0.100000)"
fill="#000000" stroke="none">
<path d="M412 248 c3 -119 5 -143 18 -143 12 0 15 17 13 103 -1 56 1 102 5
102 4 0 22 -28 40 -62 18 -35 42 -74 53 -88 19 -24 20 -24 34 -6 8 10 29 47
47 82 18 35 38 65 43 68 6 2 10 -34 10 -98 0 -83 3 -101 15 -101 13 0 15 22
15 142 0 121 -2 143 -15 143 -8 0 -20 -9 -25 -20 -29 -59 -101 -180 -108 -180
-4 0 -12 10 -17 23 -5 12 -23 45 -40 72 -17 28 -36 62 -43 78 -6 15 -19 27
-29 27 -17 0 -18 -11 -16 -142z"/>
<path d="M810 245 c0 -124 2 -145 15 -145 14 0 16 17 14 110 -1 61 0 113 2
115 2 2 38 -42 79 -96 77 -102 107 -136 115 -128 2 3 5 68 6 144 1 126 -1 140
-16 144 -17 3 -18 -6 -13 -108 3 -61 2 -111 -3 -111 -4 0 -22 20 -38 44 -17
25 -37 50 -44 58 -6 7 -30 37 -52 66 -61 81 -65 74 -65 -93z"/>
<path d="M1150 244 c0 -129 2 -145 16 -142 14 3 17 23 18 146 1 129 -1 142
-16 142 -16 0 -18 -14 -18 -146z"/>
<path d="M1390 244 c0 -112 3 -145 13 -141 8 3 12 33 11 106 0 56 4 100 8 99
5 -2 28 -39 52 -83 24 -44 50 -80 57 -80 8 0 34 37 59 82 25 45 49 83 53 83 5
0 7 -46 6 -102 -2 -85 0 -103 12 -103 11 0 14 25 15 143 1 109 -1 142 -11 142
-13 0 -43 -46 -96 -145 -15 -27 -31 -50 -35 -52 -5 -1 -34 42 -64 97 -30 55
-61 100 -67 100 -10 0 -13 -36 -13 -146z"/>
<path d="M1820 365 c-45 -33 -59 -60 -60 -117 0 -57 12 -85 53 -118 26 -21 42
-25 94 -25 57 0 65 3 96 33 47 45 63 98 46 145 -26 72 -74 107 -146 107 -34
-1 -58 -8 -83 -25z m173 -47 c62 -73 7 -188 -92 -188 -37 0 -90 35 -102 68
-23 60 12 144 65 156 50 10 101 -4 129 -36z"/>
<path d="M2130 373 c0 -16 11 -18 86 -18 84 0 86 -1 115 -32 38 -44 46 -77 25
-119 -24 -51 -69 -75 -136 -72 l-55 3 0 60 c0 49 -3 60 -18 63 -16 3 -18 -4
-15 -75 l3 -78 81 2 c128 2 176 40 178 138 1 99 -58 145 -186 145 -68 0 -78
-2 -78 -17z"/>
<path d="M2528 333 c-69 -149 -98 -215 -98 -224 0 -25 33 -5 47 29 8 20 24 57
35 82 12 25 26 60 33 79 14 42 31 50 40 19 4 -13 17 -45 30 -73 13 -27 33 -71
44 -97 12 -27 28 -48 36 -48 8 0 15 4 15 9 0 6 -27 67 -60 136 -33 69 -60 130
-60 136 0 5 -8 9 -18 9 -11 0 -26 -20 -44 -57z"/>
<path d="M131 347 l-54 -33 2 -69 c1 -53 6 -73 19 -82 9 -7 22 -17 29 -23 9
-7 29 1 72 28 49 30 60 42 61 65 0 30 -19 37 -26 10 -7 -25 -71 -65 -97 -61
-19 3 -22 10 -25 51 -4 56 5 70 60 98 36 18 46 39 22 45 -5 2 -33 -11 -63 -29z"/>
<path d="M200 312 c-34 -23 -56 -46 -58 -60 -5 -31 9 -28 51 12 40 37 72 50
86 32 5 -6 12 -30 16 -52 6 -39 4 -44 -27 -66 -18 -14 -41 -28 -50 -31 -19 -7
-24 -32 -10 -41 5 -3 24 5 43 17 19 12 43 27 54 33 16 9 21 24 23 79 3 64 1
70 -25 91 -15 13 -32 23 -38 23 -5 0 -35 -17 -65 -37z"/>
</g>
</svg>
